<svg viewBox="0 0 680 680" xmlns="http://www.w3.org/2000/svg" style="width:680px;height:680px">
  <path fill="oklch(70% .1 100)"
    d="M221 459a261 94 0 10238 0 502 330 0 01-119-30 502 330 0 01-119 30m119-30a502 330 0 00159-89 502 330 0 00-159-89 502 330 0 00-159 89 502 330 0 00159 89" />
  <path
    d="M340 429a502 330 0 00159-89 502 330 0 01102 204 261 94 0 00-142-85 502 330 0 01-119-30m0 0a502 330 0 01-159-89A502 330 0 0079 544a261 94 0 01142-85 502 330 0 00119-30m-159-89A502 330 0 0179 135a261 94 0 01522 0 502 330 0 01-102 205 502 330 0 00-159-89 502 330 0 00-159 89" />
  <path stroke="#fff" stroke-width="40" fill="none" stroke-linecap="round"
    d="M340 231a261 94 0 11.01 0zm261-96a502 330 0 01-380 324M79 136a502 330 0 00380 324m-238 0a261 94 0 10238 0m142 85a502 330 0 00-380-324M79 544a502 330 0 01380-323" />
</svg>